<svg width="22" height="22" viewBox="0 0 22 22" fill="none" xmlns="http://www.w3.org/2000/svg">
<g id="fi_1828817" clip-path="url(#clip0_3638_4383)">
<path id="Vector" d="M11 0C4.93436 0 0 4.93436 0 11C0 17.0656 4.93436 22 11 22C17.0656 22 22 17.0656 22 11C22 4.93436 17.0656 0 11 0Z" fill="#2196F3"/>
<path id="Vector_2" d="M15.8126 11.9166H11.9167V15.8125C11.9167 16.3185 11.5062 16.7291 11.0001 16.7291C10.494 16.7291 10.0835 16.3185 10.0835 15.8125V11.9166H6.18761C5.68155 11.9166 5.271 11.506 5.271 11C5.271 10.4939 5.68155 10.0834 6.18761 10.0834H10.0835V6.18748C10.0835 5.68143 10.494 5.27087 11.0001 5.27087C11.5062 5.27087 11.9167 5.68143 11.9167 6.18748V10.0834H15.8126C16.3187 10.0834 16.7292 10.4939 16.7292 11C16.7292 11.506 16.3187 11.9166 15.8126 11.9166Z" fill="#FAFAFA"/>
</g>
<defs>
<clipPath id="clip0_3638_4383">
<rect width="22" height="22" fill="white"/>
</clipPath>
</defs>
</svg>
