<svg width="23" height="22" viewBox="0 0 23 22" fill="none" xmlns="http://www.w3.org/2000/svg">
<g id="fi_10695860" clip-path="url(#clip0_3638_4398)">
<g id="Icon">
<g id="161">
<path id="Background" d="M22.6357 11C22.6357 4.92487 17.7109 0 11.6357 0C5.56061 0 0.635742 4.92487 0.635742 11C0.635742 17.0751 5.56061 22 11.6357 22C17.7109 22 22.6357 17.0751 22.6357 11Z" fill="#0098FF"/>
<path id="Vector" d="M4.82441 7.89942L5.13894 4.43872C5.16515 4.14868 5.51835 4.02063 5.72417 4.22688L6.59171 5.09442C9.64679 2.50513 14.2376 2.66583 17.1014 5.57825C20.0873 8.61442 20.0659 13.4583 17.055 16.4695C14.0348 19.4898 9.13761 19.4898 6.11691 16.4695C4.92753 15.2802 4.20652 13.7999 3.95386 12.2577C3.88511 11.8379 4.20695 11.4564 4.63234 11.4564H5.85437C6.18308 11.4564 6.46453 11.6888 6.52855 12.0111C6.71503 12.9513 7.16535 13.8484 7.87906 14.5858C9.87152 16.6444 13.1187 16.6981 15.1751 14.7035C17.2462 12.6943 17.2656 9.387 15.2323 7.35372C13.3726 5.49403 10.4464 5.35138 8.42304 6.92618L9.24374 7.74688C9.44999 7.95313 9.32195 8.30591 9.03191 8.33212L5.57121 8.64665C5.14367 8.68532 4.78531 8.32739 4.82441 7.89985V7.89942Z" fill="white"/>
</g>
</g>
</g>
<defs>
<clipPath id="clip0_3638_4398">
<rect width="22" height="22" fill="white" transform="translate(0.635742)"/>
</clipPath>
</defs>
</svg>
