<svg width="22" height="22" viewBox="0 0 22 22" fill="none" xmlns="http://www.w3.org/2000/svg">
<g id="fi_1828843" clip-path="url(#clip0_3638_4447)">
<path id="Vector" d="M11 0C4.93436 0 0 4.93436 0 11C0 17.0656 4.93436 22 11 22C17.0656 22 22 17.0656 22 11C22 4.93436 17.0656 0 11 0Z" fill="#F44336"/>
<path id="Vector_2" d="M15.0508 13.7545C15.4092 14.113 15.4092 14.6923 15.0508 15.0508C14.8721 15.2296 14.6374 15.3194 14.4026 15.3194C14.1679 15.3194 13.9333 15.2296 13.7545 15.0508L11 12.2961L8.24546 15.0508C8.06671 15.2296 7.83206 15.3194 7.59741 15.3194C7.36259 15.3194 7.12794 15.2296 6.94918 15.0508C6.59083 14.6923 6.59083 14.113 6.94918 13.7545L9.70388 11L6.94918 8.24546C6.59083 7.88694 6.59083 7.3077 6.94918 6.94918C7.3077 6.59083 7.88694 6.59083 8.24546 6.94918L11 9.70388L13.7545 6.94918C14.113 6.59083 14.6923 6.59083 15.0508 6.94918C15.4092 7.3077 15.4092 7.88694 15.0508 8.24546L12.2961 11L15.0508 13.7545Z" fill="#FAFAFA"/>
</g>
<defs>
<clipPath id="clip0_3638_4447">
<rect width="22" height="22" fill="white"/>
</clipPath>
</defs>
</svg>
