<svg width="24" height="24" viewBox="0 0 24 24" fill="none" xmlns="http://www.w3.org/2000/svg">
<g id="fi_2504768">
<path id="Vector" d="M20.6719 6.58589V22.4296C20.6719 23.2828 19.9828 23.9718 19.1297 23.9718H4.87031C4.01719 23.9718 3.32812 23.2828 3.32812 22.4296V1.57026C3.32812 0.717139 4.01719 0.0280762 4.87031 0.0280762H14.1141L20.6719 6.58589Z" fill="#23A566"/>
<path id="Vector_2" d="M15.7921 11.9485H8.20776C7.93589 11.9485 7.71558 12.1688 7.71558 12.4407V19.0454C7.71558 19.3172 7.93589 19.5375 8.20776 19.5375H15.7968C16.0687 19.5375 16.289 19.3172 16.289 19.0454V12.4454C16.2843 12.1735 16.064 11.9485 15.7921 11.9485ZM8.69995 15.1172H11.5078V16.3688H8.69995V15.1172ZM12.4921 15.1172H15.3V16.3688H12.4921V15.1172ZM15.3 14.1329H12.4921V12.9375H15.3V14.1329ZM11.5078 12.9375V14.1329H8.69995V12.9375H11.5078ZM8.69995 17.3579H11.5078V18.5532H8.69995V17.3579ZM12.4921 18.5532V17.3579H15.3V18.5532H12.4921Z" fill="white"/>
<path id="Vector_3" opacity="0.19" d="M14.9954 6.34687L20.6719 10.9453V6.62812L17.4516 4.75781L14.9954 6.34687Z" fill="black"/>
<path id="Vector_4" d="M20.6718 6.58589H15.6562C14.8031 6.58589 14.114 5.89683 14.114 5.0437V0.0280762L20.6718 6.58589Z" fill="#8ED1B1"/>
</g>
</svg>
