<svg width="22" height="22" viewBox="0 0 22 22" fill="none" xmlns="http://www.w3.org/2000/svg">
<g id="fi_2280557" clip-path="url(#clip0_3714_3185)">
<g id="Group">
<path id="Vector" d="M0.194336 21.8058C0.38968 22.0011 0.676388 22.0492 0.916883 21.9502L2.50279 21.2972L2.54192 19.4583L0.194336 21.8058Z" fill="#16202D"/>
<path id="Vector_2" d="M0.702975 19.4973L0.0499689 21.0832C-0.049009 21.3236 -0.000980822 21.6104 0.194363 21.8057L3.12877 20.0451L0.702975 19.4973Z" fill="#2D3E53"/>
<path id="Vector_3" d="M5.82849 19.9276L5.86763 16.8367L1.95508 20.7492L2.50282 21.297L5.82849 19.9276Z" fill="#FFD19C"/>
<path id="Vector_4" d="M2.07228 16.1716L0.702881 19.4973L1.95493 20.7493L6.06309 18.2844L2.07228 16.1716Z" fill="#FFF0BE"/>
<path id="Vector_5" d="M21.6111 2.26713L20.6721 1.32812L14.6467 7.82295L19.7331 6.02316L21.6111 4.14514C22.1297 3.62657 22.1297 2.78575 21.6111 2.26713Z" fill="#FF3187"/>
<path id="Vector_6" d="M20.6719 1.32795L19.7329 0.388945C19.2142 -0.129671 18.3734 -0.129626 17.8548 0.388945L15.9768 2.267L15.3508 8.52709L20.6719 3.20596C21.1905 2.68739 21.1905 1.84657 20.6719 1.32795Z" fill="#FF5178"/>
<path id="Vector_7" d="M13.1599 6.02323L18.3245 7.43177L19.733 6.02323L18.794 5.08423L13.1599 6.02323Z" fill="#DFF5FF"/>
<path id="Vector_8" d="M18.7939 5.08415L15.9769 2.26709L14.5684 3.67562L15.5074 8.3707L18.7939 5.08415Z" fill="white"/>
<path id="Vector_9" d="M4.8894 18.9887L5.82841 19.9277L18.3245 7.43168L17.3854 6.49268L8.85051 10.4537L4.8894 18.9887Z" fill="#FFB24A"/>
<path id="Vector_10" d="M2.07129 16.1707L14.5655 3.67647L17.3821 6.49309L4.88791 18.9873L2.07129 16.1707Z" fill="#FFD23B"/>
</g>
</g>
<defs>
<clipPath id="clip0_3714_3185">
<rect width="22" height="22" fill="white"/>
</clipPath>
</defs>
</svg>
