<svg width="25" height="25" viewBox="0 0 25 25" fill="none" xmlns="http://www.w3.org/2000/svg">
<g id="fi_6632509" clip-path="url(#clip0_3638_3172)">
<path id="Vector" d="M19.5833 3.75H20.4167C20.6375 3.75066 20.8491 3.83867 21.0052 3.99481C21.1613 4.15094 21.2493 4.36252 21.25 4.58333V7.08333H3.75V4.58333C3.75066 4.36252 3.83867 4.15094 3.99481 3.99481C4.15094 3.83867 4.36252 3.75066 4.58333 3.75H19.5833Z" fill="#3F5C6C"/>
<path id="Vector_2" d="M5.41675 20.4167H2.08341C1.64139 20.4167 1.21746 20.2411 0.904903 19.9286C0.592343 19.616 0.416748 19.1921 0.416748 18.75V8.75004C0.416748 8.30801 0.592343 7.88409 0.904903 7.57153C1.21746 7.25897 1.64139 7.08337 2.08341 7.08337H22.9167C23.3588 7.08337 23.7827 7.25897 24.0953 7.57153C24.4078 7.88409 24.5834 8.30801 24.5834 8.75004V18.75C24.5834 19.1921 24.4078 19.616 24.0953 19.9286C23.7827 20.2411 23.3588 20.4167 22.9167 20.4167H5.41675Z" fill="#3B97D3"/>
<path id="Vector_3" d="M19.5833 20.4166H21.6666V14.1666C21.6666 13.8351 21.5349 13.5172 21.3005 13.2827C21.066 13.0483 20.7481 12.9166 20.4166 12.9166H4.58325C4.25173 12.9166 3.93379 13.0483 3.69937 13.2827C3.46495 13.5172 3.33325 13.8351 3.33325 14.1666V20.4166H19.5833Z" fill="#3F5C6C"/>
<path id="Vector_4" d="M5.41675 12.9166H19.5834V23.75C19.5834 23.971 19.4956 24.1829 19.3393 24.3392C19.1831 24.4955 18.9711 24.5833 18.7501 24.5833H6.25008C6.02907 24.5833 5.81711 24.4955 5.66083 24.3392C5.50455 24.1829 5.41675 23.971 5.41675 23.75V12.9166Z" fill="#ECF0F1"/>
<path id="Vector_5" d="M6.25008 0.416626H18.7501C18.9711 0.416626 19.1831 0.504423 19.3393 0.660704C19.4956 0.816984 19.5834 1.02895 19.5834 1.24996V7.08329H5.41675V1.24996C5.41675 1.02895 5.50455 0.816984 5.66083 0.660704C5.81711 0.504423 6.02907 0.416626 6.25008 0.416626Z" fill="#ECF0F1"/>
<path id="Vector_6" d="M12.9167 11.6667H12.0834C11.9729 11.6667 11.8669 11.6228 11.7888 11.5447C11.7106 11.4665 11.6667 11.3605 11.6667 11.25C11.6667 11.1395 11.7106 11.0336 11.7888 10.9554C11.8669 10.8773 11.9729 10.8334 12.0834 10.8334H12.9167C13.0273 10.8334 13.1332 10.8773 13.2114 10.9554C13.2895 11.0336 13.3334 11.1395 13.3334 11.25C13.3334 11.3605 13.2895 11.4665 13.2114 11.5447C13.1332 11.6228 13.0273 11.6667 12.9167 11.6667Z" fill="#65DDB9"/>
<path id="Vector_7" d="M15.4167 11.6667H14.5834C14.4729 11.6667 14.3669 11.6228 14.2888 11.5447C14.2106 11.4665 14.1667 11.3605 14.1667 11.25C14.1667 11.1395 14.2106 11.0336 14.2888 10.9554C14.3669 10.8773 14.4729 10.8334 14.5834 10.8334H15.4167C15.5273 10.8334 15.6332 10.8773 15.7114 10.9554C15.7895 11.0336 15.8334 11.1395 15.8334 11.25C15.8334 11.3605 15.7895 11.4665 15.7114 11.5447C15.6332 11.6228 15.5273 11.6667 15.4167 11.6667Z" fill="#FF5364"/>
<path id="Vector_8" d="M10.4167 11.6667H9.58341C9.47291 11.6667 9.36693 11.6228 9.28879 11.5447C9.21065 11.4665 9.16675 11.3605 9.16675 11.25C9.16675 11.1395 9.21065 11.0336 9.28879 10.9554C9.36693 10.8773 9.47291 10.8334 9.58341 10.8334H10.4167C10.5273 10.8334 10.6332 10.8773 10.7114 10.9554C10.7895 11.0336 10.8334 11.1395 10.8334 11.25C10.8334 11.3605 10.7895 11.4665 10.7114 11.5447C10.6332 11.6228 10.5273 11.6667 10.4167 11.6667Z" fill="#F0C419"/>
<g id="Group">
<path id="Vector_9" d="M17.0833 16.6667H7.91667C7.80616 16.6667 7.70018 16.6228 7.62204 16.5447C7.5439 16.4665 7.5 16.3605 7.5 16.25C7.5 16.1395 7.5439 16.0336 7.62204 15.9554C7.70018 15.8773 7.80616 15.8334 7.91667 15.8334H17.0833C17.1938 15.8334 17.2998 15.8773 17.378 15.9554C17.4561 16.0336 17.5 16.1395 17.5 16.25C17.5 16.3605 17.4561 16.4665 17.378 16.5447C17.2998 16.6228 17.1938 16.6667 17.0833 16.6667Z" fill="#547580"/>
<path id="Vector_10" d="M17.0833 19.1667H7.91667C7.80616 19.1667 7.70018 19.1228 7.62204 19.0447C7.5439 18.9665 7.5 18.8605 7.5 18.75C7.5 18.6395 7.5439 18.5336 7.62204 18.4554C7.70018 18.3773 7.80616 18.3334 7.91667 18.3334H17.0833C17.1938 18.3334 17.2998 18.3773 17.378 18.4554C17.4561 18.5336 17.5 18.6395 17.5 18.75C17.5 18.8605 17.4561 18.9665 17.378 19.0447C17.2998 19.1228 17.1938 19.1667 17.0833 19.1667Z" fill="#547580"/>
<path id="Vector_11" d="M17.0833 21.6667H7.91667C7.80616 21.6667 7.70018 21.6228 7.62204 21.5447C7.5439 21.4665 7.5 21.3605 7.5 21.25C7.5 21.1395 7.5439 21.0336 7.62204 20.9554C7.70018 20.8773 7.80616 20.8334 7.91667 20.8334H17.0833C17.1938 20.8334 17.2998 20.8773 17.378 20.9554C17.4561 21.0336 17.5 21.1395 17.5 21.25C17.5 21.3605 17.4561 21.4665 17.378 21.5447C17.2998 21.6228 17.1938 21.6667 17.0833 21.6667Z" fill="#547580"/>
</g>
</g>
<defs>
<clipPath id="clip0_3638_3172">
<rect width="25" height="25" fill="white"/>
</clipPath>
</defs>
</svg>
