<svg width="27" height="27" viewBox="0 0 27 27" fill="none" xmlns="http://www.w3.org/2000/svg">
<g id="fi_9941441" clip-path="url(#clip0_3638_3081)">
<g id="Icon">
<g id="30">
<path id="Background" d="M19.0898 0H7.91016C3.5415 0 0 3.5415 0 7.91016V19.0898C0 23.4585 3.5415 27 7.91016 27H19.0898C23.4585 27 27 23.4585 27 19.0898V7.91016C27 3.5415 23.4585 0 19.0898 0Z" fill="#2492FF"/>
<path id="Vector" d="M8.12361 13.3972C8.12361 12.285 8.33982 11.2947 8.77225 10.4256C9.20467 9.55708 9.82588 8.88946 10.6364 8.42224C11.4464 7.95554 12.3977 7.72192 13.4893 7.72192C15.1579 7.72192 16.4725 8.23872 17.4339 9.27179C18.3952 10.3054 18.8756 11.7113 18.8756 13.4895V13.6129C18.8756 15.35 18.3931 16.7284 17.4286 17.7483C16.4636 18.7682 15.1573 19.2776 13.5094 19.2776C11.8614 19.2776 10.6496 18.8025 9.68824 17.8511C8.72689 16.9003 8.20852 15.611 8.13311 13.9836L8.12256 13.3967L8.12361 13.3972ZM11.5946 13.6134C11.5946 14.6433 11.756 15.399 12.0787 15.8794C12.4014 16.3603 12.8787 16.6003 13.5104 16.6003C14.7465 16.6003 15.3778 15.6495 15.4057 13.7474V13.3972C15.4057 11.3991 14.7671 10.3998 13.4899 10.3998C12.3292 10.3998 11.7011 11.2615 11.6051 12.9848L11.5946 13.6129V13.6134Z" fill="white"/>
</g>
</g>
</g>
<defs>
<clipPath id="clip0_3638_3081">
<rect width="27" height="27" fill="white"/>
</clipPath>
</defs>
</svg>
