<svg width="25" height="25" viewBox="0 0 25 25" fill="none" xmlns="http://www.w3.org/2000/svg">
<g id="fi_9071984">
<path id="Vector" d="M23.8281 13.9183V11.0817C23.8281 10.6749 23.5161 10.3363 23.1107 10.303L21.2743 10.1524C20.9746 10.1279 20.7077 9.93629 20.6083 9.65246C20.5036 9.35361 20.383 9.06227 20.2473 8.77956C20.1172 8.5085 20.1701 8.18459 20.3646 7.95531L21.5564 6.55059C21.8195 6.24046 21.8007 5.78032 21.5131 5.49273L19.5073 3.48688C19.2197 3.19929 18.7595 3.18046 18.4494 3.44359L17.0447 4.63541C16.8154 4.82993 16.4915 4.88285 16.2204 4.75271C15.9377 4.61698 15.6464 4.49642 15.3475 4.39173C15.0637 4.2923 14.8721 4.02545 14.8476 3.72571L14.697 1.88928C14.6637 1.48392 14.3251 1.17188 13.9183 1.17188H11.0817C10.6749 1.17188 10.3363 1.48392 10.303 1.88928L10.1524 3.72571C10.1279 4.02545 9.93629 4.29231 9.65246 4.39173C9.35361 4.49642 9.06227 4.61698 8.77955 4.75271C8.50849 4.88285 8.18459 4.82993 7.95531 4.63541L6.55059 3.44359C6.24045 3.18046 5.78032 3.19929 5.49272 3.48688L3.48688 5.49273C3.19929 5.78032 3.18045 6.24046 3.44358 6.55059L4.6354 7.95531C4.82993 8.18459 4.88284 8.5085 4.75271 8.77956C4.61697 9.06227 4.49641 9.35361 4.39173 9.65246C4.2923 9.93629 4.02544 10.1279 3.72571 10.1524L1.88928 10.303C1.48392 10.3363 1.17188 10.6749 1.17188 11.0817V13.9183C1.17188 14.325 1.48392 14.6637 1.88928 14.697L3.72571 14.8475C4.02545 14.8721 4.29231 15.0637 4.39173 15.3475C4.49642 15.6464 4.61698 15.9377 4.75271 16.2205C4.88285 16.4915 4.82993 16.8154 4.63541 17.0447L3.44359 18.4494C3.18046 18.7596 3.19929 19.2197 3.48688 19.5073L5.49272 21.5131C5.78032 21.8007 6.24045 21.8195 6.55058 21.5564L7.9553 20.3646C8.18458 20.17 8.5085 20.1171 8.77956 20.2473C9.06227 20.383 9.35361 20.5036 9.65247 20.6083C9.93629 20.7077 10.1279 20.9746 10.1524 21.2743L10.303 23.1107C10.3362 23.5161 10.6749 23.8281 11.0816 23.8281H13.9183C14.3251 23.8281 14.6637 23.5161 14.697 23.1107L14.8476 21.2743C14.8721 20.9746 15.0637 20.7077 15.3475 20.6083C15.6464 20.5036 15.9377 20.383 16.2204 20.2473C16.4915 20.1171 16.8154 20.17 17.0447 20.3646L18.4494 21.5564C18.7595 21.8195 19.2197 21.8007 19.5073 21.5131L21.5131 19.5073C21.8007 19.2197 21.8195 18.7596 21.5564 18.4494L20.3646 17.0447C20.1701 16.8154 20.1171 16.4915 20.2473 16.2205C20.383 15.9377 20.5036 15.6464 20.6083 15.3475C20.7077 15.0637 20.9745 14.8721 21.2743 14.8475L23.1107 14.697C23.5161 14.6637 23.8281 14.325 23.8281 13.9183Z" fill="#546F7A"/>
<path id="Vector_2" d="M20.5234 20.4961L19.5078 21.5118C19.2188 21.8008 18.7578 21.8204 18.4492 21.5547L17.043 20.3633C16.8164 20.1719 16.4922 20.1172 16.2188 20.2461C15.9375 20.3829 15.6445 20.5039 15.3476 20.6094C15.0625 20.7071 14.8711 20.9727 14.8477 21.2735L14.6953 23.1094C14.6641 23.5157 14.3242 23.8282 13.918 23.8282H11.082C10.6758 23.8282 10.3359 23.5157 10.3047 23.1094L10.1523 21.2735C10.1289 20.9727 9.9375 20.7071 9.65235 20.6094C9.35547 20.5039 9.0625 20.3829 8.78124 20.2461C8.50782 20.1172 8.1836 20.1719 7.95703 20.3633L6.55079 21.5547C6.24218 21.8204 5.78124 21.8008 5.49218 21.5118L3.48828 19.5079C3.19922 19.2188 3.17969 18.7578 3.44531 18.4493L4.63672 17.043C4.82812 16.8164 4.88281 16.4922 4.7539 16.2188C4.61719 15.9375 4.4961 15.6446 4.39062 15.3477C4.29297 15.0625 4.02734 14.8711 3.72655 14.8477L1.89064 14.6954C1.48437 14.6641 1.17188 14.3243 1.17188 13.918V11.0821C1.17188 10.6758 1.48437 10.336 1.89064 10.3047L3.72655 10.1524C4.02734 10.129 4.29297 9.93755 4.39062 9.65238C4.4961 9.35552 4.61719 9.06255 4.7539 8.78129C4.88281 8.50785 4.82812 8.18365 4.63672 7.95708L3.44531 6.55081C3.17969 6.24222 3.19922 5.78129 3.48828 5.49223L5.49218 3.48833C5.78124 3.19927 6.24218 3.17974 6.55079 3.44536L7.95703 4.63676C8.09765 4.75395 8.26952 4.82035 8.44922 4.82426C9.14452 9.69536 11.6406 18.0039 20.5234 20.4961Z" fill="#455B64"/>
<path id="Vector_3" d="M12.5 18.75C15.9518 18.75 18.75 15.9518 18.75 12.5C18.75 9.04822 15.9518 6.25 12.5 6.25C9.04822 6.25 6.25 9.04822 6.25 12.5C6.25 15.9518 9.04822 18.75 12.5 18.75Z" fill="#CFD8DC"/>
<path id="Vector_4" d="M7.03125 13.2813C7.03125 9.82947 9.82947 7.03125 13.2813 7.03125C14.8082 7.03125 16.2059 7.58035 17.2914 8.48985C16.1449 7.12149 14.4248 6.25 12.5 6.25C9.04822 6.25 6.25 9.04822 6.25 12.5C6.25 14.4248 7.12149 16.1449 8.48985 17.2914C7.58035 16.2059 7.03125 14.8082 7.03125 13.2813Z" fill="#B0BEC5"/>
<path id="Vector_5" d="M12.5 16.4062C14.6574 16.4062 16.4062 14.6574 16.4062 12.5C16.4062 10.3426 14.6574 8.59375 12.5 8.59375C10.3426 8.59375 8.59375 10.3426 8.59375 12.5C8.59375 14.6574 10.3426 16.4062 12.5 16.4062Z" fill="#90A4AE"/>
</g>
</svg>
