<svg width="22" height="22" viewBox="0 0 22 22" fill="none" xmlns="http://www.w3.org/2000/svg">
<g id="fi_9790368" clip-path="url(#clip0_3638_4456)">
<path id="Vector" fill-rule="evenodd" clip-rule="evenodd" d="M11 22C17.0585 22 22 17.0585 22 11C22 4.94154 17.0585 0 11 0C4.94154 0 0 4.94154 0 11C0 17.0585 4.94154 22 11 22Z" fill="#F34235"/>
<path id="Vector_2" d="M15.74 7.3652H6.25999C6.20645 7.3652 6.1554 7.38724 6.11858 7.426C6.0815 7.46506 6.06225 7.51722 6.06504 7.57076L6.56318 17.1824C6.58522 17.61 6.93778 17.945 7.36618 17.945H14.6338C15.0622 17.945 15.4148 17.61 15.4368 17.1824L15.9349 7.57076C15.9377 7.51722 15.9185 7.46506 15.8814 7.426C15.8446 7.38724 15.7936 7.3652 15.74 7.3652ZM7.90535 9.30288C7.90174 9.17208 7.94943 9.04738 8.0398 8.95199C8.13016 8.8566 8.25206 8.80195 8.38286 8.79804C8.65507 8.79245 8.881 9.00609 8.88882 9.27611L9.06984 16.0232C9.07375 16.1538 9.02606 16.2787 8.93539 16.3744C8.84503 16.4696 8.72287 16.5242 8.59177 16.5281H8.57729C8.45148 16.5281 8.33237 16.4804 8.24007 16.3928C8.14498 16.3025 8.09029 16.1806 8.08668 16.05L7.90535 9.30288ZM10.5083 16.0291V9.28109C10.5083 9.0097 10.7289 8.78906 11 8.78906C11.2711 8.78906 11.4917 9.0097 11.4917 9.28109V16.0291C11.4917 16.3007 11.2711 16.5217 11 16.5217C10.7289 16.5217 10.5083 16.3008 10.5083 16.0291ZM13.9133 16.0494C13.9097 16.1805 13.855 16.3024 13.7599 16.3928C13.6676 16.4804 13.5485 16.5281 13.4227 16.5281H13.4074C13.2766 16.5242 13.1547 16.4695 13.0646 16.3741C12.9739 16.2785 12.9262 16.1538 12.9301 16.0227L13.1111 9.27667C13.119 9.00639 13.3432 8.79133 13.6137 8.79804H13.6171C13.7479 8.80195 13.8698 8.8566 13.9602 8.95199C14.0505 9.04738 14.0982 9.17208 14.0946 9.30288L13.9133 16.0494ZM16.7148 5.86151V6.3792H5.28516V5.86151C5.28516 5.5759 5.51749 5.34356 5.8031 5.34356H9.5627C9.66225 5.34356 9.74596 5.26854 9.75683 5.1695C9.82631 4.53412 10.3607 4.05493 11 4.05493C11.6393 4.05493 12.1737 4.53412 12.2432 5.1695C12.254 5.2685 12.3377 5.34356 12.4373 5.34356H16.1969C16.4825 5.34356 16.7148 5.5759 16.7148 5.86151Z" fill="white"/>
</g>
<defs>
<clipPath id="clip0_3638_4456">
<rect width="22" height="22" fill="white"/>
</clipPath>
</defs>
</svg>
