<svg width="27" height="27" viewBox="0 0 27 27" fill="none" xmlns="http://www.w3.org/2000/svg">
<g id="x">
<path id="Background" d="M19.0898 0H7.91016C3.5415 0 0 3.5415 0 7.91016V19.0898C0 23.4585 3.5415 27 7.91016 27H19.0898C23.4585 27 27 23.4585 27 19.0898V7.91016C27 3.5415 23.4585 0 19.0898 0Z" fill="#FF4B34"/>
<path id="Vector" d="M18.6267 17.8264C19.1244 18.3244 19.1244 19.1304 18.6267 19.627C18.3784 19.8753 18.0524 20 17.7263 20C17.4003 20 17.0744 19.8753 16.8261 19.627L13 15.8005L9.17389 19.627C8.92559 19.8753 8.59965 20 8.27372 20C7.94755 20 7.62162 19.8753 7.37332 19.627C6.87556 19.1304 6.87556 18.3244 7.37332 17.8264L11.1997 14.0001L7.37332 10.1739C6.87556 9.67593 6.87556 8.86994 7.37332 8.37333C7.87131 7.87556 8.67589 7.87556 9.17389 8.37333L13 12.1998L16.8261 8.37333C17.3241 7.87556 18.1287 7.87556 18.6267 8.37333C19.1244 8.86994 19.1244 9.67593 18.6267 10.1739L14.8003 14.0001L18.6267 17.8264Z" fill="#FAFAFA"/>
</g>
</svg>
