<svg width="50" height="50" viewBox="0 0 50 50" fill="none" xmlns="http://www.w3.org/2000/svg">
<rect width="50" height="50" rx="8" fill="white"/>
<rect width="50" height="50" rx="8" stroke="#485AFF"/>
<g clip-path="url(#clip0_3436_132)">
<path d="M34.5 13H23.5C23.2239 13 23 13.2239 23 13.5V38.5C23 38.7761 23.2239 39 23.5 39H34.5C34.7761 39 35 38.7761 35 38.5V13.5C35 13.2239 34.7761 13 34.5 13Z" fill="#D9D9D9"/>
<path d="M43.8535 25.6465L39.3535 21.1465C39.3071 21.1001 39.252 21.0632 39.1913 21.0381C39.1307 21.0129 39.0657 21 39 21C38.9343 21 38.8693 21.0129 38.8087 21.0381C38.748 21.0632 38.6929 21.1001 38.6465 21.1465L37.1465 22.6465C37.1001 22.6929 37.0632 22.748 37.0381 22.8087C37.0129 22.8693 37 22.9343 37 23C37 23.0657 37.0129 23.1307 37.0381 23.1913C37.0632 23.252 37.1001 23.3071 37.1465 23.3535L38.2929 24.5H28C27.8674 24.5 27.7402 24.5527 27.6464 24.6464C27.5527 24.7402 27.5 24.8674 27.5 25V27C27.5 27.1326 27.5527 27.2598 27.6464 27.3536C27.7402 27.4473 27.8674 27.5 28 27.5H38.2929L37.1465 28.6465C37.1001 28.6929 37.0632 28.748 37.0381 28.8087C37.0129 28.8693 37 28.9343 37 29C37 29.0657 37.0129 29.1307 37.0381 29.1913C37.0632 29.252 37.1001 29.3071 37.1465 29.3535L38.6465 30.8535C38.6929 30.8999 38.748 30.9368 38.8087 30.9619C38.8693 30.9871 38.9343 31 39 31C39.0657 31 39.1307 30.9871 39.1913 30.9619C39.252 30.9368 39.3071 30.8999 39.3535 30.8535L43.8535 26.3535C43.9 26.3071 43.9368 26.252 43.9619 26.1913C43.9871 26.1307 44 26.0657 44 26C44 25.9343 43.9871 25.8693 43.9619 25.8087C43.9368 25.748 43.9 25.6929 43.8535 25.6465Z" fill="#B8B8B8"/>
<path d="M23.7929 10.095C23.7288 10.0486 23.6547 10.0181 23.5765 10.006C23.4983 9.99379 23.4184 10.0003 23.3433 10.025L12.3433 13.6583C12.2433 13.6913 12.1564 13.7549 12.0947 13.8402C12.0331 13.9255 12 14.0281 12 14.1333V37.8667C12 37.9719 12.0331 38.0744 12.0947 38.1597C12.1564 38.245 12.2433 38.3087 12.3433 38.3417L23.3433 41.975C23.4184 41.9998 23.4983 42.0064 23.5765 41.9943C23.6547 41.9822 23.7289 41.9517 23.793 41.9053C23.8571 41.8589 23.9093 41.798 23.9453 41.7276C23.9813 41.6571 24 41.5791 24 41.5V10.5C23.9999 10.4209 23.9811 10.343 23.9451 10.2726C23.9092 10.2022 23.857 10.1413 23.7929 10.095Z" fill="#B8B8B8"/>
<path d="M20.5 27.5C21.3284 27.5 22 26.8284 22 26C22 25.1716 21.3284 24.5 20.5 24.5C19.6716 24.5 19 25.1716 19 26C19 26.8284 19.6716 27.5 20.5 27.5Z" fill="#323232"/>
</g>
<defs>
<clipPath id="clip0_3436_132">
<rect width="32" height="32" fill="white" transform="translate(12 10)"/>
</clipPath>
</defs>
</svg>
