<svg width="93" height="50" viewBox="0 0 93 50" fill="none" xmlns="http://www.w3.org/2000/svg">
<rect width="93" height="50" rx="25" fill="white"/>
<rect width="93" height="50" rx="25" stroke="#485AFF"/>
<path d="M46 25C46 34.9411 37.9411 43 28 43C18.0589 43 10 34.9411 10 25C10 15.0589 18.0589 7 28 7C37.9411 7 46 15.0589 46 25Z" fill="#1361A0"/>
<path d="M46 25C46 34.9411 37.9411 43 28 43C18.0589 43 10 34.9411 10 25C10 15.0589 18.0589 7 28 7C37.9411 7 46 15.0589 46 25Z" stroke="black"/>
<g clip-path="url(#clip0_3442_82)">
<path d="M28.0001 32.8469C32.3377 32.8469 35.8541 29.3306 35.8541 24.993C35.8541 20.6554 32.3377 17.1391 28.0001 17.1391C23.6626 17.1391 20.1462 20.6554 20.1462 24.993C20.1462 29.3306 23.6626 32.8469 28.0001 32.8469Z" fill="#FFBC45"/>
<path d="M31.5085 17.9688C32.0382 19.0258 32.3359 20.2164 32.3359 21.4773C32.3359 25.8133 28.8203 29.3313 24.482 29.3313C23.221 29.3313 22.0281 29.0312 20.9734 28.5039C22.2648 31.0773 24.925 32.8469 28 32.8469C32.3359 32.8469 35.8539 29.3312 35.8539 24.993C35.8539 21.918 34.0843 19.2578 31.5085 17.9688Z" fill="#F9AE35"/>
<path d="M28 10.4688C27.7422 10.4688 27.5312 10.6797 27.5312 10.9375V13.5672C27.5312 13.825 27.7422 14.0359 28 14.0359C28.2578 14.0359 28.4688 13.825 28.4688 13.5672V10.9375C28.4688 10.6797 28.2578 10.4688 28 10.4688Z" fill="#FFBC45"/>
<path d="M28 35.9523C27.7422 35.9523 27.5312 36.1633 27.5312 36.4211V39.0508C27.5312 39.3086 27.7422 39.5195 28 39.5195C28.2578 39.5195 28.4688 39.3086 28.4688 39.0508V36.4211C28.4688 36.1609 28.2578 35.9523 28 35.9523Z" fill="#FFBC45"/>
<path d="M37.607 14.7227L35.7484 16.5812C35.5656 16.7641 35.5656 17.0617 35.7484 17.2445C35.8398 17.3359 35.9594 17.3828 36.0789 17.3828C36.1984 17.3828 36.318 17.3359 36.4094 17.2445L38.268 15.3859C38.4508 15.2031 38.4508 14.9055 38.268 14.7227C38.0852 14.5398 37.7898 14.5398 37.607 14.7227Z" fill="#FFBC45"/>
<path d="M19.5882 32.7414L17.7296 34.6C17.5468 34.7828 17.5468 35.0805 17.7296 35.2633C17.821 35.3547 17.9406 35.4016 18.0601 35.4016C18.1796 35.4016 18.2992 35.3547 18.3906 35.2633L20.2492 33.4047C20.432 33.2219 20.432 32.9242 20.2492 32.7414C20.0664 32.5586 19.771 32.5586 19.5882 32.7414Z" fill="#FFBC45"/>
<path d="M42.0555 24.5242H39.4258C39.168 24.5242 38.957 24.7352 38.957 24.993C38.957 25.2508 39.168 25.4617 39.4258 25.4617H42.0555C42.3133 25.4617 42.5242 25.2508 42.5242 24.993C42.5242 24.7352 42.3156 24.5242 42.0555 24.5242Z" fill="#FFBC45"/>
<path d="M16.5743 24.5242H13.9446C13.6868 24.5242 13.4758 24.7352 13.4758 24.993C13.4758 25.2508 13.6868 25.4617 13.9446 25.4617H16.5743C16.8321 25.4617 17.043 25.2508 17.043 24.993C17.043 24.7352 16.8321 24.5242 16.5743 24.5242Z" fill="#FFBC45"/>
<path d="M36.4117 32.7414C36.2289 32.5586 35.9313 32.5586 35.7484 32.7414C35.5656 32.9242 35.5656 33.2219 35.7484 33.4047L37.607 35.2633C37.6984 35.3547 37.818 35.4016 37.9375 35.4016C38.057 35.4016 38.1766 35.3547 38.268 35.2633C38.4508 35.0805 38.4508 34.7828 38.268 34.6L36.4117 32.7414Z" fill="#FFBC45"/>
<path d="M18.3929 14.7227C18.2101 14.5398 17.9125 14.5398 17.7296 14.7227C17.5468 14.9055 17.5468 15.2031 17.7296 15.3859L19.5882 17.2445C19.6796 17.3359 19.7992 17.3828 19.9187 17.3828C20.0382 17.3828 20.1578 17.3359 20.2492 17.2445C20.432 17.0617 20.432 16.7641 20.2492 16.5812L18.3929 14.7227Z" fill="#FFBC45"/>
</g>
<g clip-path="url(#clip1_3442_82)">
<path d="M81.8272 27.8722C81.706 27.7512 81.5529 27.667 81.3858 27.6295C81.2186 27.592 81.0443 27.6026 80.8829 27.6601C78.7146 28.4332 76.3714 28.5751 74.1256 28.0695C71.8798 27.5638 69.8235 26.4312 68.1958 24.8034C66.568 23.1756 65.4356 21.1193 64.9301 18.8734C64.4245 16.6276 64.5666 14.2844 65.3398 12.1161C65.3973 11.9547 65.4078 11.7803 65.3702 11.6132C65.3326 11.4461 65.2484 11.293 65.1274 11.1718C65.0064 11.0506 64.8534 10.9662 64.6864 10.9283C64.5193 10.8904 64.3449 10.9007 64.1835 10.9579C62.2286 11.6482 60.4545 12.7705 58.9934 14.2412C56.374 16.8626 54.9029 20.417 54.9036 24.1228C54.9043 27.8286 56.3767 31.3824 58.9971 34.0028C61.6175 36.6232 65.1713 38.0957 68.8771 38.0964C72.5829 38.0971 76.1373 36.626 78.7587 34.0066C80.2295 32.5451 81.3518 30.7708 82.042 28.8156C82.099 28.6541 82.1091 28.4798 82.0711 28.3128C82.033 28.1458 81.9485 27.993 81.8272 27.8722Z" fill="#FDC830"/>
</g>
<defs>
<clipPath id="clip0_3442_82">
<rect width="30" height="30" fill="white" transform="translate(13 10)"/>
</clipPath>
<clipPath id="clip1_3442_82">
<rect width="29" height="29" fill="white" transform="translate(54 10)"/>
</clipPath>
</defs>
</svg>
