<svg width="176" height="55" viewBox="0 0 176 55" fill="none" xmlns="http://www.w3.org/2000/svg">
<rect width="175.175" height="54.6486" rx="27.3243" fill="#CDCDCD"/>
<path d="M76.4108 33.2481V36.4219H55.7809V33.2481H64.1305V30.3672H58.027V22.3839H70.3073V20.626H58.0026V17.501H74.1891V25.4112H61.9576V27.2178H74.7018V30.3672H68.0123V33.2481H76.4108ZM95.6002 18.0381V21.0411C95.588 24.3004 95.588 27.2789 94.819 31.8077L90.8395 31.5147C91.6573 27.3643 91.6696 24.2759 91.6696 21.1631H79.4625V18.0381H95.6002ZM77.3873 36.0069V32.8331H97.9928V36.0069H77.3873ZM118.037 16.2071V32.2471H114.106V16.2071H118.037ZM99.2379 23.336C99.2135 19.9913 102.033 17.5377 105.561 17.5499C109.077 17.5377 111.897 19.9913 111.884 23.336C111.897 26.7418 109.077 29.1588 105.561 29.171C102.033 29.1588 99.2135 26.7418 99.2379 23.336ZM102.583 38.4239V30.6358H106.538V35.2989H118.574V38.4239H102.583ZM103.047 23.336C103.034 24.9839 104.121 25.7652 105.561 25.7774C106.928 25.7652 108.003 24.9839 108.003 23.336C108.003 21.7491 106.928 20.9312 105.561 20.9434C104.121 20.9312 103.034 21.7491 103.047 23.336Z" fill="black"/>
</svg>
