<svg width="50" height="50" viewBox="0 0 50 50" fill="none" xmlns="http://www.w3.org/2000/svg">
<rect width="50" height="50" rx="8" fill="white"/>
<rect width="50" height="50" rx="8" stroke="#485AFF"/>
<path d="M45.9407 40.1762L40.7867 33.5497C40.76 33.5183 40.7267 33.493 40.6892 33.4757C40.6517 33.4584 40.6109 33.4494 40.5695 33.4494C40.5282 33.4494 40.4874 33.4584 40.4499 33.4757C40.4124 33.493 40.3791 33.5183 40.3523 33.5497L35.1984 40.1762C35.1663 40.2168 35.1463 40.2656 35.1407 40.3171C35.1352 40.3686 35.1443 40.4206 35.1671 40.467C35.19 40.5134 35.2254 40.5524 35.2693 40.5797C35.3132 40.607 35.3639 40.6215 35.4156 40.6217H45.7235C45.7752 40.6215 45.8258 40.607 45.8697 40.5797C45.9136 40.5524 45.9491 40.5134 45.972 40.467C45.9948 40.4206 46.0039 40.3686 45.9984 40.3171C45.9928 40.2656 45.9728 40.2168 45.9407 40.1762Z" fill="#9C9C9C"/>
<g clip-path="url(#clip0_3606_3686)">
<path d="M33.8943 13.718H17.1616C15.6586 13.718 14.4358 14.9408 14.4358 16.4457C14.4358 17.9487 15.6586 19.1715 17.1616 19.1715H33.8943C35.3973 19.1715 36.6201 17.9487 36.6201 16.4457C36.6202 14.9407 35.3973 13.718 33.8943 13.718Z" fill="#9C9C9C"/>
<path d="M9.7268 13.718C8.22328 13.718 7 14.9412 7 16.4447C7 17.9482 8.22328 19.1715 9.7268 19.1715C11.2303 19.1715 12.4535 17.9482 12.4535 16.4447C12.4535 14.9412 11.2303 13.718 9.7268 13.718Z" fill="#9C9C9C"/>
<path d="M9.7268 22.0834C8.22328 22.0834 7 23.3066 7 24.8101C7 26.3136 8.22328 27.5369 9.7268 27.5369C11.2303 27.5369 12.4535 26.3136 12.4535 24.8101C12.4535 23.3066 11.2303 22.0834 9.7268 22.0834Z" fill="#9C9C9C"/>
<path d="M9.7268 30.4488C8.22328 30.4488 7 31.672 7 33.1755C7 34.6791 8.22328 35.9023 9.7268 35.9023C11.2303 35.9023 12.4535 34.6791 12.4535 33.1755C12.4535 31.672 11.2303 30.4488 9.7268 30.4488Z" fill="#9C9C9C"/>
<path d="M33.8943 22.0834H17.1616C15.6586 22.0834 14.4358 23.3062 14.4358 24.8111C14.4358 26.3141 15.6586 27.5369 17.1616 27.5369H33.8943C35.3973 27.5369 36.6201 26.3141 36.6201 24.8111C36.6202 23.3062 35.3973 22.0834 33.8943 22.0834Z" fill="#9C9C9C"/>
<path d="M33.8943 30.4488H17.1616C15.6586 30.4488 14.4358 31.6716 14.4358 33.1765C14.4358 34.6795 15.6586 35.9023 17.1616 35.9023H33.8943C35.3973 35.9023 36.6201 34.6795 36.6201 33.1765C36.6202 31.6716 35.3973 30.4488 33.8943 30.4488Z" fill="#9C9C9C"/>
</g>
<defs>
<clipPath id="clip0_3606_3686">
<rect width="29.6203" height="29.6203" fill="white" transform="translate(7 10)"/>
</clipPath>
</defs>
</svg>
