<svg width="171" height="59" viewBox="0 0 171 59" fill="none" xmlns="http://www.w3.org/2000/svg">
<rect width="171" height="59" rx="29.5" fill="#CDDC39"/>
<path d="M33.5156 19.457V21.9473H37.4951V19.457H41.0107V29.2471H30.0488V19.457H33.5156ZM32.2705 33.2266V30.541H47.3096V36.8398H35.7617V37.9629H47.8955V40.7217H32.2949V34.3496H43.7939V33.2266H32.2705ZM33.5156 26.5127H37.4951V24.5596H33.5156V26.5127ZM43.7939 29.7842V18.4316H47.3096V22.6309H50.2148V25.4629H47.3096V29.7842H43.7939ZM70.0391 18.4561V34.7891H66.5479V26.9521H63.1787V24.1201H66.5479V18.4561H70.0391ZM50.874 29.5645C54.6948 28.4048 56.1353 25.4995 56.1475 22.7285V22.6797H51.8506V19.8721H64.0088V22.6797H59.7363V22.7529C59.7363 25.2798 61.1279 28.0386 64.7656 29.1982L63.0566 31.9814C60.603 31.2002 58.9551 29.6621 57.9907 27.7334C57.002 29.8696 55.2808 31.5664 52.6807 32.3965L50.874 29.5645ZM55.0244 40.4775V33.373H58.54V37.6699H70.5518V40.4775H55.0244ZM93.1592 35.4482V38.2559H72.6758V35.4482H81.0498V30.5166H84.541V35.4482H93.1592ZM73.0664 28.4414C78.5107 27.6357 80.8789 24.1812 80.9033 21.1904V19.6523H84.6631V21.1904C84.6509 24.23 87.0312 27.6357 92.5488 28.4414L91.0596 31.3711C87.019 30.6631 84.2358 28.6489 82.771 25.9878C81.3184 28.6367 78.5596 30.6753 74.5557 31.3711L73.0664 28.4414ZM118.843 18.4561V35.5215H115.352V31.4932H112.593V28.71H115.352V26.708H112.593V23.9004H115.352V18.4561H118.843ZM99.9463 23.4365V20.7021H104.536V18.4072H108.052V20.7021H112.3V23.4365H99.9463ZM100.947 28.5146C100.947 25.939 103.206 24.0835 106.245 24.0713C109.358 24.0835 111.616 25.939 111.641 28.5146C111.616 31.127 109.358 32.958 106.245 32.958C103.206 32.958 100.947 31.127 100.947 28.5146ZM103.804 40.4775V34.0811H107.368V37.6699H119.307V40.4775H103.804ZM104.219 28.5146C104.219 29.7109 105.073 30.2847 106.245 30.2969C107.429 30.2847 108.32 29.7109 108.32 28.5146C108.32 27.3794 107.429 26.8179 106.245 26.8057C105.073 26.8179 104.219 27.3794 104.219 28.5146ZM139.521 18.4561V24.6816H142.231V27.5625H139.521V33.5684H136.006V18.4561H139.521ZM121.187 30.4434C122.773 30.4434 124.568 30.4434 126.436 30.3945V29.2349C124.043 28.8809 122.578 27.7578 122.578 26.1221C122.578 24.1323 124.763 22.8994 128.145 22.8994C131.526 22.8994 133.711 24.1323 133.711 26.1221C133.711 27.7334 132.271 28.8564 129.927 29.2227V30.2725C131.672 30.187 133.418 30.0405 135.078 29.833L135.322 32.2012C130.586 33.019 125.496 33.0679 121.553 33.0801L121.187 30.4434ZM121.772 22.5088V19.9453H126.436V18.2607H129.927V19.9453H134.541V22.5088H121.772ZM124.116 37.3037C124.128 34.9966 126.924 33.7026 131.88 33.7148C136.775 33.7026 139.583 34.9966 139.595 37.3037C139.583 39.6353 136.775 40.8804 131.88 40.8926C126.924 40.8804 124.128 39.6353 124.116 37.3037ZM125.947 26.1221C125.935 26.7935 126.716 27.0864 128.145 27.0986C129.573 27.0864 130.342 26.7935 130.342 26.1221C130.342 25.4995 129.573 25.1821 128.145 25.1699C126.716 25.1821 125.935 25.4995 125.947 26.1221ZM127.656 37.3037C127.632 38.0239 128.877 38.3413 131.88 38.3291C134.81 38.3413 136.042 38.0239 136.055 37.3037C136.042 36.5591 134.81 36.2417 131.88 36.2539C128.877 36.2417 127.632 36.5591 127.656 37.3037Z" fill="#444A01"/>
</svg>
