<svg width="171" height="59" viewBox="0 0 171 59" fill="none" xmlns="http://www.w3.org/2000/svg">
<rect width="171" height="59" rx="29.5" fill="#CDDC39"/>
<path d="M33.5156 19.457V21.9473H37.4951V19.457H41.0107V29.2471H30.0488V19.457H33.5156ZM32.2705 33.2266V30.541H47.3096V36.8398H35.7617V37.9629H47.8955V40.7217H32.2949V34.3496H43.7939V33.2266H32.2705ZM33.5156 26.5127H37.4951V24.5596H33.5156V26.5127ZM43.7939 29.7842V18.4316H47.3096V22.6309H50.2148V25.4629H47.3096V29.7842H43.7939ZM70.0391 18.4561V34.7891H66.5479V26.9521H63.1787V24.1201H66.5479V18.4561H70.0391ZM50.874 29.5645C54.6948 28.4048 56.1353 25.4995 56.1475 22.7285V22.6797H51.8506V19.8721H64.0088V22.6797H59.7363V22.7529C59.7363 25.2798 61.1279 28.0386 64.7656 29.1982L63.0566 31.9814C60.603 31.2002 58.9551 29.6621 57.9907 27.7334C57.002 29.8696 55.2808 31.5664 52.6807 32.3965L50.874 29.5645ZM55.0244 40.4775V33.373H58.54V37.6699H70.5518V40.4775H55.0244ZM93.1592 35.4482V38.2559H72.6758V35.4482H81.0498V30.5166H84.541V35.4482H93.1592ZM73.0664 28.4414C78.5107 27.6357 80.8789 24.1812 80.9033 21.1904V19.6523H84.6631V21.1904C84.6509 24.23 87.0312 27.6357 92.5488 28.4414L91.0596 31.3711C87.019 30.6631 84.2358 28.6489 82.771 25.9878C81.3184 28.6367 78.5596 30.6753 74.5557 31.3711L73.0664 28.4414ZM112.471 20.0186V21.5078C112.458 23.0947 112.458 25.3164 111.982 28.0508L108.54 27.7334C108.906 25.7314 109.004 24.1812 109.041 22.875H100.825V20.0186H112.471ZM99.5312 29.54C100.715 29.54 102.058 29.5278 103.462 29.5034V25.2676H106.953V29.4058C109.114 29.3081 111.311 29.1372 113.35 28.832L113.521 31.3467C108.882 32.2256 103.682 32.311 99.8242 32.2988L99.5312 29.54ZM102.754 40.4775V33.6904H106.294V37.6699H118.745V40.4775H102.754ZM114.448 35.1797V18.4316H118.062V25.1211H120.601V28.0264H118.062V35.1797H114.448ZM140.327 18.4316V40.8926H136.836V18.4316H140.327ZM122.651 35.7168V26.3418H129.756V23.0703H122.651V20.2627H133.345V29.1006H126.289V32.8359C129.609 32.7993 132.368 32.6162 135.42 32.1035L135.713 34.9355C132.173 35.5825 128.877 35.7046 124.702 35.7168H122.651Z" fill="#444A01"/>
</svg>
