<svg width="176" height="55" viewBox="0 0 176 55" fill="none" xmlns="http://www.w3.org/2000/svg">
<rect width="175.175" height="54.6486" rx="27.3243" fill="#CDCDCD"/>
<path d="M64.2418 16.1583V38.8145H60.2867V16.1583H64.2418ZM46.1754 33.6388V17.8917H50.1061V23.0675H53.7682V17.8917H57.6256V33.6388H46.1754ZM50.1061 30.4893H53.7682V26.0948H50.1061V30.4893ZM79.1832 17.2081V26.9493H67.9039V17.2081H79.1832ZM70.4186 38.6436V32.1007H81.9664V31.295H70.4186V28.3165H85.7994V34.8351H74.3004V35.6163H86.2877V38.6436H70.4186ZM71.7614 23.9464H75.3014V20.3087H71.7614V23.9464ZM81.8932 27.4376V16.1583H85.7994V27.4376H81.8932ZM107.601 16.2071V32.8087H103.695V25.045H100.301V29.4395H89.2418V17.672H93.1725V20.7726H96.444V17.672H100.301V21.9444H103.695V16.2071H107.601ZM92.2936 38.4239V31.1485H96.2731V35.2989H108.065V38.4239H92.2936ZM93.1725 26.4122H96.444V23.7267H93.1725V26.4122ZM129.745 18.7218V21.8224H110.799V18.7218H118.295V16.3292H122.201V18.7218H129.745ZM109.994 36.6905V33.5655H118.295V31.3316C114.584 30.9166 112.338 29.3297 112.338 26.9005C112.338 24.1173 115.377 22.4327 120.248 22.4327C125.033 22.4327 128.121 24.1173 128.109 26.9005C128.121 29.3297 125.851 30.9044 122.201 31.3316V33.5655H130.624V36.6905H109.994ZM116.39 26.9005C116.378 27.9747 117.599 28.3409 120.248 28.3409C122.811 28.3409 124.068 27.9747 124.081 26.9005C124.068 25.8507 122.811 25.4723 120.248 25.4601C117.599 25.4723 116.378 25.8507 116.39 26.9005Z" fill="black"/>
</svg>
