<svg width="175" height="59" viewBox="0 0 175 59" fill="none" xmlns="http://www.w3.org/2000/svg">
<rect width="175" height="59" rx="29.5" fill="#CDDC39"/>
<path d="M39.9346 23.1924C39.9224 27.2451 41.3384 31.2856 45.0615 33.0801L42.9619 35.8633C40.6182 34.728 39.0923 32.6772 38.189 30.1382C37.2368 32.8726 35.5889 35.082 33.0742 36.3027L30.9258 33.4463C34.8809 31.6641 36.4067 27.3916 36.4189 23.1924V20.0918H39.9346V23.1924ZM45.7207 40.8438V18.4316H49.2363V26.9277H52.4102V29.8818H49.2363V40.8438H45.7207ZM73.5039 28.9053V31.7129H53.0693V28.9053H57.5127V26.354C55.938 25.6216 55.0347 24.5107 55.0469 23.0947C55.0347 20.3848 58.2695 18.7368 63.2744 18.7246C68.2549 18.7368 71.4897 20.3848 71.502 23.0947C71.4897 24.5474 70.562 25.6704 68.9141 26.4028V28.9053H73.5039ZM55.3643 36.7422C55.3643 34.1299 58.3184 32.6895 63.25 32.6895C68.0962 32.6895 71.0625 34.1299 71.0625 36.7422C71.0625 39.3911 68.0962 40.8193 63.25 40.8193C58.3184 40.8193 55.3643 39.3911 55.3643 36.7422ZM58.709 23.0947C58.6846 24.2178 60.2837 24.7305 63.2744 24.7305C66.2407 24.7305 67.8643 24.2178 67.8643 23.0947C67.8643 21.9717 66.2407 21.4224 63.2744 21.4346C60.2837 21.4224 58.6846 21.9717 58.709 23.0947ZM58.9531 36.7422C58.9287 37.7432 60.3081 38.2192 63.25 38.207C66.1187 38.2192 67.5347 37.7432 67.5469 36.7422C67.5347 35.7534 66.1187 35.3384 63.25 35.3262C60.3081 35.3384 58.9287 35.7534 58.9531 36.7422ZM61.0771 28.9053H65.3984V27.2573C64.7393 27.3306 64.019 27.3672 63.2744 27.3672C62.4932 27.3672 61.7607 27.3306 61.0771 27.2573V28.9053ZM83.1719 24.291C83.1475 27.6479 84.7222 31.5786 88.543 33.3242L86.5898 36.083C84.124 34.9722 82.4395 32.8237 81.4507 30.2725C80.4741 33.1045 78.7163 35.4727 76.1406 36.6689L74.1143 33.8857C78.0083 32.0913 79.6074 27.9531 79.6074 24.291V23.4121H75.042V20.5557H87.5176V23.4121H83.1719V24.291ZM88.9336 40.8438V18.4316H92.4492V26.8301H95.623V29.7354H92.4492V40.8438H88.9336ZM114.471 20.0186V21.5078C114.458 23.0947 114.458 25.3164 113.982 28.0508L110.54 27.7334C110.906 25.7314 111.004 24.1812 111.041 22.875H102.825V20.0186H114.471ZM101.531 29.54C102.715 29.54 104.058 29.5278 105.462 29.5034V25.2676H108.953V29.4058C111.114 29.3081 113.311 29.1372 115.35 28.832L115.521 31.3467C110.882 32.2256 105.682 32.311 101.824 32.2988L101.531 29.54ZM104.754 40.4775V33.6904H108.294V37.6699H120.745V40.4775H104.754ZM116.448 35.1797V18.4316H120.062V25.1211H122.601V28.0264H120.062V35.1797H116.448ZM142.327 18.4316V40.8926H138.836V18.4316H142.327ZM124.651 35.7168V26.3418H131.756V23.0703H124.651V20.2627H135.345V29.1006H128.289V32.8359C131.609 32.7993 134.368 32.6162 137.42 32.1035L137.713 34.9355C134.173 35.5825 130.877 35.7046 126.702 35.7168H124.651Z" fill="#444A01"/>
</svg>
