<svg width="176" height="55" viewBox="0 0 176 55" fill="none" xmlns="http://www.w3.org/2000/svg">
<rect width="175.175" height="54.6486" rx="27.3243" fill="#CDCDCD"/>
<path d="M61.8844 17.672C65.3878 17.6598 67.9757 20.8092 67.9879 25.8018C67.9757 30.8678 65.3878 34.005 61.8844 34.005C58.3444 34.005 55.7321 30.8678 55.7565 25.8018C55.7321 20.8092 58.3444 17.6598 61.8844 17.672ZM59.5651 25.8018C59.5406 28.9757 60.4806 30.4283 61.8844 30.4161C63.3248 30.4283 64.2281 28.9757 64.2526 25.8018C64.2281 22.6768 63.3248 21.1998 61.8844 21.212C60.4806 21.1998 59.5406 22.6768 59.5651 25.8018ZM69.8678 38.7413V16.1583H73.7985V24.3614H76.8502V27.6085H73.7985V38.7413H69.8678ZM96.4547 16.1583V38.8145H92.4996V16.1583H96.4547ZM77.9244 25.8018C77.9122 20.8092 80.5245 17.6598 84.0524 17.672C87.4948 17.6598 90.0826 20.8092 90.0826 25.8018C90.0826 30.8678 87.4948 34.005 84.0524 34.005C80.5245 34.005 77.9122 30.8678 77.9244 25.8018ZM81.7086 25.8018C81.6964 28.9757 82.6119 30.4283 84.0524 30.4161C85.4073 30.4283 86.3107 28.9757 86.3229 25.8018C86.3107 22.6768 85.4073 21.1998 84.0524 21.212C82.6119 21.1998 81.6964 22.6768 81.7086 25.8018ZM118.061 16.1583V38.8145H114.106V16.1583H118.061ZM100.312 33.5655V18.0626H111.421V21.212H104.218V30.294C107.978 30.2696 110.236 30.1842 112.763 29.7325L113.081 32.9063C110.236 33.5045 107.417 33.5777 102.339 33.5655H100.312Z" fill="black"/>
</svg>
