<svg width="171" height="59" viewBox="0 0 171 59" fill="none" xmlns="http://www.w3.org/2000/svg">
<rect width="171" height="59" rx="29.5" fill="#CDDC39"/>
<path d="M55.9287 19.8965V22.6797H51.644C51.7783 25.0845 53.1943 27.4038 56.71 28.417L55.0498 31.1758C52.5962 30.4556 50.936 29.0273 49.9473 27.2207C48.9463 29.3813 47.1885 31.0903 44.5273 31.9326L42.7451 29.1738C46.4194 28.0386 47.9209 25.3164 48.0552 22.6797H43.6729V19.8965H55.9287ZM45.8701 36.4248C45.8579 33.6538 48.8364 32.0303 53.6094 32.0303C58.2969 32.0303 61.2266 33.6538 61.2266 36.4248C61.2266 39.1958 58.2969 40.8682 53.6094 40.8438C48.8364 40.8682 45.8579 39.1958 45.8701 36.4248ZM49.3857 36.4248C49.3735 37.6089 50.8262 38.1338 53.6094 38.1338C56.3682 38.1338 57.7476 37.6089 57.7598 36.4248C57.7476 35.2651 56.3682 34.7524 53.6094 34.7646C50.8262 34.7524 49.3735 35.2651 49.3857 36.4248ZM57.4912 31.6641V18.4316H61.0068V23.4854H63.9121V26.3174H61.0068V31.6641H57.4912ZM69.8203 19.9453C72.8354 19.9453 74.8008 23.0581 74.8008 28.1484C74.8008 33.2754 72.8354 36.4004 69.8203 36.4004C66.854 36.4004 64.9253 33.2754 64.9375 28.1484C64.9253 23.0581 66.854 19.9453 69.8203 19.9453ZM68.1602 28.1484C68.1479 31.5298 68.7461 33.0312 69.8203 33.0312C70.9434 33.0312 71.5781 31.5298 71.5781 28.1484C71.5781 24.7915 70.9434 23.2656 69.8203 23.2656C68.7461 23.2656 68.1479 24.7915 68.1602 28.1484ZM75.8994 39.8428V18.7246H79.2197V26.8789H80.8799V18.4316H84.249V40.8438H80.8799V29.7354H79.2197V39.8428H75.8994ZM105.343 18.4316V31.7373H101.852V26.6104H98.6777V23.7783H101.852V18.4316H105.343ZM86.1533 29.0273C89.7788 27.8433 91.2681 25.1211 91.439 22.5088H87.1543V19.7012H99.3125V22.5088H95.0645C95.2354 24.9258 96.6758 27.3672 100.069 28.4902L98.3604 31.249C95.9189 30.4678 94.2832 28.9297 93.3066 27.0254C92.3301 29.186 90.6089 30.9316 87.9844 31.8105L86.1533 29.0273ZM89.8643 36.5225C89.8643 33.7759 92.8184 32.1646 97.6035 32.1523C102.45 32.1646 105.404 33.7759 105.416 36.5225C105.404 39.269 102.45 40.8804 97.6035 40.8926C92.8184 40.8804 89.8643 39.269 89.8643 36.5225ZM93.3555 36.5225C93.3555 37.6821 94.8081 38.2192 97.6035 38.207C100.46 38.2192 101.9 37.6821 101.925 36.5225C101.9 35.3384 100.46 34.8135 97.6035 34.8135C94.8081 34.8135 93.3555 35.3384 93.3555 36.5225ZM128.463 35.4727V38.3291H107.979V35.4727H116.451V31.542H110.079V19.8232H113.595V23.1191H122.75V19.8232H126.266V31.542H119.918V35.4727H128.463ZM113.595 28.7588H122.75V25.8779H113.595V28.7588Z" fill="#444A01"/>
</svg>
