<svg width="25" height="26" viewBox="0 0 25 26" fill="none" xmlns="http://www.w3.org/2000/svg">
<path d="M23.0623 2.18978H20.4923V1.04214C20.4923 0.457782 19.8771 0 19.0923 0C18.3064 0 17.6906 0.457782 17.6906 1.04214V2.18978H13.7822V1.04214C13.7822 0.457782 13.1664 0 12.3805 0C11.5947 0 10.9789 0.457782 10.9789 1.04214V2.18978H7.07184V1.04214C7.07184 0.457782 6.45624 0 5.67019 0C4.88415 0 4.26855 0.457782 4.26855 1.04214V2.18978H1.70027C1.24949 2.19027 0.817318 2.36956 0.498564 2.6883C0.17981 3.00705 0.000509771 3.43922 0 3.89V24.2997C0.000523874 24.7505 0.179827 25.1827 0.498577 25.5014C0.817326 25.8202 1.24949 25.9995 1.70027 26H23.0623C23.5129 25.9993 23.9449 25.82 24.2633 25.5012C24.5818 25.1824 24.7608 24.7503 24.7611 24.2997V3.89C24.7608 3.4394 24.5818 3.00732 24.2633 2.68857C23.9448 2.36981 23.5129 2.19043 23.0623 2.18978ZM18.5467 1.04856C18.5729 0.992387 18.7698 0.855967 19.0924 0.855967C19.414 0.855967 19.6104 0.992601 19.6365 1.04856V2.18978H18.5467V1.04856ZM11.8349 1.04904C11.8616 0.992708 12.0587 0.855967 12.3805 0.855967C12.7024 0.855967 12.8995 0.992708 12.9262 1.04904V2.18978H11.8349V1.04904ZM5.12462 1.04904C5.15137 0.992708 5.3484 0.855967 5.6703 0.855967C5.9922 0.855967 6.18923 0.992708 6.21598 1.04904V2.18978H5.12462V1.04904Z" fill="#EAE8E8"/>
<path d="M11.4235 10.2803V12.2016C11.4235 12.3151 11.3784 12.424 11.2982 12.5042C11.2179 12.5845 11.1091 12.6296 10.9956 12.6296H8.81819C8.70468 12.6296 8.59582 12.5845 8.51556 12.5042C8.4353 12.424 8.39021 12.3151 8.39021 12.2016V10.2803C8.39021 10.1668 8.4353 10.0579 8.51556 9.97765C8.59582 9.89739 8.70468 9.85229 8.81819 9.85229H10.9956C11.1091 9.85229 11.2179 9.89739 11.2982 9.97765C11.3784 10.0579 11.4235 10.1668 11.4235 10.2803ZM15.9422 9.85229H13.7648C13.6513 9.85229 13.5425 9.89739 13.4622 9.97765C13.3819 10.0579 13.3368 10.1668 13.3368 10.2803V12.2016C13.3368 12.3151 13.3819 12.424 13.4622 12.5042C13.5425 12.5845 13.6513 12.6296 13.7648 12.6296H15.9422C16.0557 12.6296 16.1646 12.5845 16.2448 12.5042C16.3251 12.424 16.3702 12.3151 16.3702 12.2016V10.2803C16.3702 10.1668 16.3251 10.0579 16.2448 9.97765C16.1646 9.89739 16.0557 9.85229 15.9422 9.85229ZM6.05042 14.5532H3.87134C3.75783 14.5532 3.64898 14.5983 3.56871 14.6786C3.48845 14.7588 3.44336 14.8677 3.44336 14.9812V16.9025C3.44336 17.016 3.48845 17.1249 3.56871 17.2052C3.64898 17.2854 3.75783 17.3305 3.87134 17.3305H6.05047C6.16398 17.3305 6.27284 17.2854 6.3531 17.2052C6.43337 17.1249 6.47846 17.016 6.47846 16.9025V14.9812C6.47846 14.8677 6.43337 14.7588 6.3531 14.6786C6.27284 14.5983 6.16393 14.5532 6.05042 14.5532ZM10.9955 14.5532H8.81814C8.70463 14.5532 8.59577 14.5983 8.51551 14.6786C8.43524 14.7588 8.39015 14.8677 8.39015 14.9812V16.9025C8.39015 17.016 8.43524 17.1249 8.51551 17.2052C8.59577 17.2854 8.70463 17.3305 8.81814 17.3305H10.9955C11.109 17.3305 11.2179 17.2854 11.2981 17.2052C11.3784 17.1249 11.4235 17.016 11.4235 16.9025V14.9812C11.4235 14.8677 11.3784 14.7588 11.2982 14.6786C11.2179 14.5983 11.1091 14.5532 10.9956 14.5532H10.9955ZM15.9421 14.5532H13.7648C13.6513 14.5532 13.5424 14.5983 13.4621 14.6786C13.3819 14.7588 13.3368 14.8677 13.3368 14.9812V16.9025C13.3368 17.016 13.3819 17.1249 13.4621 17.2052C13.5424 17.2854 13.6513 17.3305 13.7648 17.3305H15.9421C16.0556 17.3305 16.1645 17.2854 16.2448 17.2052C16.325 17.1249 16.3701 17.016 16.3701 16.9025V14.9812C16.3701 14.8677 16.325 14.7588 16.2448 14.6786C16.1645 14.5983 16.0557 14.5532 15.9422 14.5532H15.9421ZM6.05037 19.2557H3.87134C3.75783 19.2557 3.64898 19.3008 3.56871 19.381C3.48845 19.4613 3.44336 19.5702 3.44336 19.6837V21.6034C3.44336 21.7169 3.48845 21.8258 3.56871 21.9061C3.64898 21.9863 3.75783 22.0314 3.87134 22.0314H6.05047C6.16398 22.0314 6.27284 21.9863 6.3531 21.9061C6.43337 21.8258 6.47846 21.7169 6.47846 21.6034V19.6837C6.47846 19.5702 6.43337 19.4614 6.3531 19.3811C6.27284 19.3008 6.16398 19.2557 6.05047 19.2557L6.05037 19.2557ZM10.9954 19.2557H8.81808C8.70458 19.2557 8.59572 19.3008 8.51545 19.381C8.43519 19.4613 8.3901 19.5702 8.3901 19.6837V21.6034C8.3901 21.7169 8.43519 21.8258 8.51545 21.9061C8.59572 21.9863 8.70458 22.0314 8.81808 22.0314H10.9954C11.109 22.0314 11.2178 21.9863 11.2981 21.9061C11.3783 21.8258 11.4234 21.7169 11.4234 21.6034V19.6837C11.4234 19.5702 11.3784 19.4614 11.2981 19.3811C11.2179 19.3009 11.109 19.2558 10.9956 19.2557L10.9954 19.2557ZM6.05047 9.85229H3.87134C3.75783 9.85229 3.64898 9.89739 3.56871 9.97765C3.48845 10.0579 3.44336 10.1668 3.44336 10.2803V12.2016C3.44336 12.3151 3.48845 12.424 3.56871 12.5042C3.64898 12.5845 3.75783 12.6296 3.87134 12.6296H6.05047C6.16398 12.6296 6.27284 12.5845 6.3531 12.5042C6.43337 12.424 6.47846 12.3151 6.47846 12.2016V10.2803C6.47846 10.1668 6.43337 10.0579 6.3531 9.97765C6.27284 9.89739 6.16398 9.85229 6.05047 9.85229ZM20.8888 14.5532H18.7115C18.5979 14.5532 18.4891 14.5983 18.4088 14.6786C18.3286 14.7588 18.2835 14.8677 18.2835 14.9812V16.9025C18.2835 17.016 18.3286 17.1249 18.4088 17.2052C18.4891 17.2854 18.5979 17.3305 18.7115 17.3305H20.8888C21.0023 17.3305 21.1112 17.2854 21.1915 17.2052C21.2717 17.1249 21.3168 17.016 21.3168 16.9025V14.9812C21.3168 14.8677 21.2717 14.7588 21.1915 14.6786C21.1112 14.5983 21.0023 14.5532 20.8888 14.5532ZM15.9422 19.2557H13.7648C13.6513 19.2557 13.5425 19.3008 13.4622 19.381C13.3819 19.4613 13.3368 19.5702 13.3368 19.6837V21.6034C13.3368 21.7169 13.3819 21.8258 13.4622 21.9061C13.5425 21.9863 13.6513 22.0314 13.7648 22.0314H15.9422C16.0557 22.0314 16.1646 21.9863 16.2448 21.9061C16.3251 21.8258 16.3702 21.7169 16.3702 21.6034V19.6837C16.3702 19.5702 16.3251 19.4614 16.2448 19.3811C16.1646 19.3008 16.0557 19.2557 15.9422 19.2557Z" fill="#484868"/>
<path d="M6.0506 9.85229H5.51562C5.62913 9.85229 5.73799 9.89739 5.81826 9.97765C5.89852 10.0579 5.94361 10.1668 5.94361 10.2803V12.2016C5.94361 12.3151 5.89852 12.424 5.81826 12.5042C5.73799 12.5845 5.62913 12.6296 5.51562 12.6296H6.0506C6.16411 12.6296 6.27297 12.5845 6.35323 12.5042C6.4335 12.424 6.47859 12.3151 6.47859 12.2016V10.2803C6.47859 10.1668 6.4335 10.0579 6.35323 9.97765C6.27297 9.89739 6.16411 9.85229 6.0506 9.85229Z" fill="#3D3D54"/>
<path d="M10.9949 19.2557H10.46C10.5735 19.2557 10.6823 19.3008 10.7626 19.3811C10.8429 19.4614 10.8879 19.5702 10.8879 19.6837V21.6035C10.8879 21.717 10.8429 21.8259 10.7626 21.9061C10.6823 21.9864 10.5735 22.0315 10.46 22.0315H10.9949C11.1084 22.0315 11.2173 21.9864 11.2976 21.9061C11.3778 21.8259 11.4229 21.717 11.4229 21.6035V19.6837C11.4229 19.5702 11.3778 19.4614 11.2976 19.3811C11.2173 19.3008 11.1084 19.2557 10.9949 19.2557Z" fill="#3D3D54"/>
<path d="M10.9949 14.5532H10.46C10.5735 14.5532 10.6823 14.5983 10.7626 14.6786C10.8429 14.7588 10.8879 14.8677 10.8879 14.9812V16.9025C10.8879 17.016 10.8429 17.1249 10.7626 17.2052C10.6823 17.2854 10.5735 17.3305 10.46 17.3305H10.9949C11.1084 17.3305 11.2173 17.2854 11.2976 17.2052C11.3778 17.1249 11.4229 17.016 11.4229 16.9025V14.9812C11.4229 14.8677 11.3778 14.7588 11.2976 14.6786C11.2173 14.5983 11.1084 14.5532 10.9949 14.5532Z" fill="#3D3D54"/>
<path d="M6.0506 19.2557H5.51562C5.62913 19.2557 5.73799 19.3008 5.81826 19.3811C5.89852 19.4614 5.94361 19.5702 5.94361 19.6837V21.6035C5.94361 21.717 5.89852 21.8259 5.81826 21.9061C5.73799 21.9864 5.62913 22.0315 5.51562 22.0315H6.0506C6.16411 22.0315 6.27297 21.9864 6.35323 21.9061C6.4335 21.8259 6.47859 21.717 6.47859 21.6035V19.6837C6.47859 19.5702 6.4335 19.4614 6.35323 19.3811C6.27297 19.3008 6.16411 19.2557 6.0506 19.2557Z" fill="#3D3D54"/>
<path d="M6.0506 14.5532H5.51562C5.62913 14.5532 5.73799 14.5983 5.81826 14.6786C5.89852 14.7588 5.94361 14.8677 5.94361 14.9812V16.9025C5.94361 17.016 5.89852 17.1249 5.81826 17.2052C5.73799 17.2854 5.62913 17.3305 5.51562 17.3305H6.0506C6.16411 17.3305 6.27297 17.2854 6.35323 17.2052C6.4335 17.1249 6.47859 17.016 6.47859 16.9025V14.9812C6.47859 14.8677 6.4335 14.7588 6.35323 14.6786C6.27297 14.5983 6.16411 14.5532 6.0506 14.5532Z" fill="#3D3D54"/>
<path d="M15.9422 19.2557H15.4072C15.5207 19.2557 15.6296 19.3008 15.7099 19.3811C15.7901 19.4614 15.8352 19.5702 15.8352 19.6837V21.6035C15.8352 21.717 15.7901 21.8259 15.7099 21.9061C15.6296 21.9864 15.5207 22.0315 15.4072 22.0315H15.9422C16.0557 22.0315 16.1646 21.9864 16.2448 21.9061C16.3251 21.8259 16.3702 21.717 16.3702 21.6035V19.6837C16.3702 19.5702 16.3251 19.4614 16.2448 19.3811C16.1646 19.3008 16.0557 19.2557 15.9422 19.2557Z" fill="#3D3D54"/>
<path d="M15.9422 9.85229H15.4072C15.5207 9.85229 15.6296 9.89739 15.7099 9.97765C15.7901 10.0579 15.8352 10.1668 15.8352 10.2803V12.2016C15.8352 12.3151 15.7901 12.424 15.7099 12.5042C15.6296 12.5845 15.5207 12.6296 15.4072 12.6296H15.9422C16.0557 12.6296 16.1646 12.5845 16.2448 12.5042C16.3251 12.424 16.3702 12.3151 16.3702 12.2016V10.2803C16.3702 10.1668 16.3251 10.0579 16.2448 9.97765C16.1646 9.89739 16.0557 9.85229 15.9422 9.85229Z" fill="#3D3D54"/>
<path d="M10.9949 9.85229H10.46C10.5735 9.85229 10.6823 9.89739 10.7626 9.97765C10.8429 10.0579 10.8879 10.1668 10.8879 10.2803V12.2016C10.8879 12.3151 10.8429 12.424 10.7626 12.5042C10.6823 12.5845 10.5735 12.6296 10.46 12.6296H10.9949C11.1084 12.6296 11.2173 12.5845 11.2976 12.5042C11.3778 12.424 11.4229 12.3151 11.4229 12.2016V10.2803C11.4229 10.1668 11.3778 10.0579 11.2976 9.97765C11.2173 9.89739 11.1084 9.85229 10.9949 9.85229Z" fill="#3D3D54"/>
<path d="M20.8885 14.5532H20.3535C20.467 14.5532 20.5759 14.5983 20.6561 14.6786C20.7364 14.7588 20.7815 14.8677 20.7815 14.9812V16.9025C20.7815 17.016 20.7364 17.1249 20.6561 17.2052C20.5759 17.2854 20.467 17.3305 20.3535 17.3305H20.8885C21.002 17.3305 21.1109 17.2854 21.1911 17.2052C21.2714 17.1249 21.3165 17.016 21.3165 16.9025V14.9812C21.3165 14.8677 21.2714 14.7588 21.1911 14.6786C21.1109 14.5983 21.002 14.5532 20.8885 14.5532Z" fill="#3D3D54"/>
<path d="M15.9422 14.5532H15.4072C15.5207 14.5532 15.6296 14.5983 15.7099 14.6786C15.7901 14.7588 15.8352 14.8677 15.8352 14.9812V16.9025C15.8352 17.016 15.7901 17.1249 15.7099 17.2052C15.6296 17.2854 15.5207 17.3305 15.4072 17.3305H15.9422C16.0557 17.3305 16.1646 17.2854 16.2448 17.2052C16.3251 17.1249 16.3702 17.016 16.3702 16.9025V14.9812C16.3702 14.8677 16.3251 14.7588 16.2448 14.6786C16.1646 14.5983 16.0557 14.5532 15.9422 14.5532Z" fill="#3D3D54"/>
<path d="M19.5308 12.5067C19.4179 12.5067 19.3096 12.4622 19.2295 12.3827L18.35 11.5107C18.2699 11.4307 18.2249 11.3222 18.2246 11.209C18.2244 11.0958 18.269 10.9871 18.3487 10.9068C18.4284 10.8264 18.5367 10.7808 18.6498 10.7801C18.763 10.7794 18.8719 10.8235 18.9526 10.9029L19.5036 11.449L20.6238 10.1265C20.6972 10.0398 20.802 9.98592 20.9151 9.97656C21.0282 9.96719 21.1404 10.0031 21.2271 10.0765C21.3137 10.1499 21.3676 10.2547 21.377 10.3678C21.3863 10.4809 21.3504 10.5931 21.277 10.6797L19.8576 12.3554C19.8194 12.4004 19.7724 12.4371 19.7193 12.4631C19.6663 12.489 19.6085 12.5038 19.5495 12.5063C19.5432 12.5066 19.537 12.5067 19.5308 12.5067Z" fill="#D22E2E"/>
<path d="M21.0176 24.622C20.9778 24.6618 20.9306 24.6933 20.8787 24.7149C20.8268 24.7364 20.7711 24.7475 20.7149 24.7475H1.70027C1.24949 24.7469 0.817326 24.5676 0.498577 24.2489C0.179827 23.9301 0.000523874 23.498 0 23.0472V24.2997C0.000523874 24.7505 0.179827 25.1827 0.498577 25.5014C0.817326 25.8202 1.24949 25.9995 1.70027 26H23.0623C23.5129 25.9994 23.9449 25.82 24.2633 25.5012C24.5818 25.1824 24.7608 24.7503 24.7611 24.2997V20.6997C24.7611 20.8132 24.716 20.922 24.6358 21.0022L21.0176 24.622Z" fill="#D1C9C9"/>
<path d="M24.7605 20.6997V20.6436H21.5249C21.2979 20.6436 21.0802 20.7337 20.9197 20.8943C20.7591 21.0548 20.6689 21.2725 20.6689 21.4995V24.7474H20.7143C20.7705 24.7474 20.8261 24.7363 20.8781 24.7148C20.93 24.6933 20.9772 24.6618 21.0169 24.622L24.6352 21.0022C24.7154 20.922 24.7605 20.8131 24.7605 20.6997Z" fill="#BCB3B3"/>
<path d="M23.0623 2.18979H18.5467V3.80981C18.5719 3.86599 18.7681 4.00342 19.0924 4.00342C19.2059 4.00342 19.3148 4.04851 19.395 4.12878C19.4753 4.20904 19.5204 4.3179 19.5204 4.43141C19.5204 4.54491 19.4753 4.65377 19.395 4.73404C19.3148 4.8143 19.2059 4.85939 19.0924 4.85939C18.3065 4.85939 17.6908 4.40097 17.6908 3.8157V2.18979H11.8349V3.80949C11.8604 3.86588 12.0569 4.00342 12.3805 4.00342C12.4941 4.00342 12.6029 4.04851 12.6832 4.12878C12.7634 4.20904 12.8085 4.3179 12.8085 4.43141C12.8085 4.54491 12.7634 4.65377 12.6832 4.73404C12.6029 4.8143 12.4941 4.85939 12.3805 4.85939C11.5946 4.85939 10.9789 4.40097 10.9789 3.8157V2.18979H5.12473V3.80949C5.1503 3.86588 5.3468 4.00342 5.67041 4.00342C5.78392 4.00342 5.89277 4.04851 5.97304 4.12878C6.0533 4.20904 6.09839 4.3179 6.09839 4.43141C6.09839 4.54491 6.0533 4.65377 5.97304 4.73404C5.89277 4.8143 5.78392 4.85939 5.67041 4.85939C4.88452 4.85939 4.26876 4.40097 4.26876 3.8157V2.18979H1.70027C1.24949 2.19028 0.817318 2.36957 0.498564 2.68832C0.17981 3.00706 0.000509771 3.43923 0 3.89001V7.53894H24.7611V3.89001C24.7608 3.43941 24.5818 3.00733 24.2633 2.68858C23.9448 2.36983 23.5129 2.19044 23.0623 2.18979Z" fill="#D22E2E"/>
<path d="M0 7.53894H24.7611V8.20724H0V7.53894Z" fill="#D1C9C9"/>
<path d="M12.8084 4.4314C12.8084 4.5449 12.7633 4.65376 12.6831 4.73403C12.6028 4.81429 12.494 4.85938 12.3804 4.85938C11.5945 4.85938 10.9788 4.40095 10.9788 3.81569V1.04214C10.9788 0.457782 11.5945 0 12.3804 0C13.1664 0 13.7821 0.457782 13.7821 1.04214V2.18978H12.9261V1.04904C12.8994 0.992708 12.7022 0.855967 12.3804 0.855967C12.0587 0.855967 11.8615 0.992708 11.8348 1.04904V3.80954C11.8603 3.86592 12.0568 4.00347 12.3804 4.00347C12.4939 4.00347 12.6028 4.04855 12.6831 4.1288C12.7633 4.20905 12.8084 4.3179 12.8084 4.4314ZM5.6702 4.00341C5.3467 4.00341 5.1502 3.86587 5.12452 3.80948V1.04899C5.15127 0.992654 5.3483 0.855914 5.6702 0.855914C5.9921 0.855914 6.18913 0.992654 6.21588 1.04899V2.18978H7.07185V1.04214C7.07185 0.457782 6.45625 0 5.6702 0C4.88416 0 4.26855 0.457782 4.26855 1.04214V3.81569C4.26855 4.40095 4.88421 4.85938 5.6702 4.85938C5.78371 4.85938 5.89257 4.81429 5.97283 4.73403C6.05309 4.65376 6.09818 4.5449 6.09818 4.4314C6.09818 4.31789 6.05309 4.20903 5.97283 4.12877C5.89257 4.0485 5.78371 4.00341 5.6702 4.00341ZM19.0922 4.00341C18.768 4.00341 18.5718 3.86598 18.5465 3.8098V1.04856C18.5727 0.992387 18.7696 0.855967 19.0922 0.855967C19.4138 0.855967 19.6102 0.992601 19.6363 1.04856V2.18978H20.4922V1.04214C20.4922 0.457782 19.877 0 19.0922 0C18.3063 0 17.6905 0.457782 17.6905 1.04214V3.81569C17.6905 4.40095 18.3061 4.85938 19.0922 4.85938C19.2057 4.85938 19.3146 4.81429 19.3948 4.73403C19.4751 4.65376 19.5202 4.5449 19.5202 4.4314C19.5202 4.31789 19.4751 4.20903 19.3948 4.12877C19.3146 4.0485 19.2057 4.00341 19.0922 4.00341Z" fill="#484868"/>
<path d="M5.67288 3.62897C5.4765 3.62898 5.28701 3.70135 5.14063 3.83226C5.19776 3.89614 5.3842 4.00345 5.67026 4.00345C5.78376 4.00345 5.89262 4.04854 5.97289 4.12881C6.05315 4.20907 6.09824 4.31793 6.09824 4.43144C6.09824 4.54494 6.05315 4.6538 5.97289 4.73407C5.89262 4.81433 5.78376 4.85942 5.67026 4.85942C5.41095 4.86179 5.15423 4.80764 4.91797 4.70074C4.96739 4.83913 5.05388 4.96129 5.168 5.05387C5.28212 5.14645 5.41948 5.20589 5.56509 5.22572C5.7107 5.24554 5.85895 5.22498 5.99367 5.16628C6.12838 5.10758 6.24438 5.013 6.32901 4.89286C6.41363 4.77272 6.46361 4.63164 6.47351 4.48503C6.48341 4.33841 6.45284 4.19189 6.38513 4.06147C6.31742 3.93105 6.21519 3.82173 6.08958 3.74546C5.96397 3.66919 5.81983 3.62889 5.67288 3.62897Z" fill="#AD1E1E"/>
<path d="M12.3806 3.62897C12.1849 3.62891 11.996 3.7007 11.8498 3.83071C11.9054 3.89442 12.0924 4.0034 12.3806 4.0034C12.4941 4.0034 12.6029 4.04849 12.6832 4.12875C12.7634 4.20902 12.8085 4.31787 12.8085 4.43138C12.8085 4.54489 12.7634 4.65375 12.6832 4.73401C12.6029 4.81428 12.4941 4.85937 12.3806 4.85937C12.12 4.86176 11.8621 4.80709 11.625 4.69919C11.6741 4.83778 11.7604 4.9602 11.8744 5.05307C11.9884 5.14594 12.1257 5.20569 12.2713 5.22579C12.417 5.24589 12.5654 5.22556 12.7002 5.16703C12.8351 5.1085 12.9513 5.01402 13.0361 4.89392C13.1209 4.77381 13.1711 4.6327 13.1811 4.48601C13.1912 4.33932 13.1607 4.1927 13.093 4.06216C13.0254 3.93163 12.9231 3.8222 12.7975 3.74585C12.6718 3.6695 12.5276 3.62916 12.3806 3.62923V3.62897Z" fill="#AD1E1E"/>
<path d="M19.0916 3.62899C18.8961 3.62892 18.7073 3.70063 18.5612 3.83052C18.6159 3.89397 18.8029 4.00342 19.0924 4.00342C19.2059 4.00342 19.3148 4.04851 19.395 4.12878C19.4753 4.20904 19.5204 4.3179 19.5204 4.43141C19.5204 4.54491 19.4753 4.65377 19.395 4.73404C19.3148 4.8143 19.2059 4.85939 19.0924 4.85939C18.8315 4.86182 18.5733 4.80704 18.3359 4.6989C18.3851 4.83748 18.4713 4.95989 18.5853 5.05276C18.6993 5.14563 18.8366 5.20538 18.9822 5.22548C19.1279 5.24559 19.2762 5.22527 19.4111 5.16676C19.546 5.10824 19.6622 5.01378 19.747 4.89368C19.8318 4.77359 19.882 4.6325 19.8921 4.48582C19.9021 4.33914 19.8717 4.19251 19.804 4.06197C19.7364 3.93143 19.6342 3.822 19.5085 3.74563C19.3829 3.66926 19.2387 3.62894 19.0916 3.62899Z" fill="#AD1E1E"/>
</svg>
