<svg width="50" height="50" viewBox="0 0 50 50" fill="none" xmlns="http://www.w3.org/2000/svg">
<rect width="50" height="50" rx="8" fill="white"/>
<rect width="50" height="50" rx="8" stroke="#485AFF"/>
<g clip-path="url(#clip0_3436_131)">
<path d="M25.2824 12.166C24.8554 11.7216 24.1444 11.7216 23.7175 12.166L11.6611 24.7162V40.4309C11.6611 41.3097 12.3736 42.0222 13.2524 42.0222H35.7474C36.6262 42.0222 37.3386 41.3097 37.3386 40.4309C37.3386 40.1067 37.3386 25.4716 37.3386 24.7161L25.2824 12.166Z" fill="#989898"/>
<path d="M20.2083 42.0223V35.5139C20.2083 33.1437 22.1297 31.2223 24.4999 31.2223C26.8701 31.2223 28.7915 33.1438 28.7915 35.5139V42.0223C28.341 42.0223 20.7002 42.0223 20.2083 42.0223Z" fill="#A6A6A6"/>
<path d="M25.2824 12.166C24.8555 11.7216 24.1445 11.7216 23.7175 12.166L21.543 14.4297C21.8796 14.3781 22.2357 14.4837 22.4906 14.7491L34.547 27.2993V42.0223H35.7474C36.6263 42.0223 37.3387 41.3098 37.3387 40.431C37.3387 40.1068 37.3387 25.4717 37.3387 24.7162L25.2824 12.166Z" fill="#898989"/>
<path d="M23.7176 14.1623L9.67725 28.7777C9.39657 29.0699 8.93063 29.0746 8.64421 28.7881L7.21187 27.3558C6.93338 27.0773 6.92887 26.6272 7.20169 26.3432L23.4567 9.42222C24.026 8.82962 24.974 8.82962 25.5432 9.42222L41.7983 26.3432C42.0711 26.6273 42.0666 27.0773 41.7881 27.3558L40.3559 28.7881C40.0694 29.0746 39.6035 29.0699 39.3228 28.7777L25.2825 14.1623C24.8555 13.7178 24.1446 13.7178 23.7176 14.1623Z" fill="#767676"/>
</g>
<defs>
<clipPath id="clip0_3436_131">
<rect width="35" height="35" fill="white" transform="translate(7 8)"/>
</clipPath>
</defs>
</svg>
