<svg width="30" height="30" viewBox="0 0 30 30" fill="none" xmlns="http://www.w3.org/2000/svg">
<path d="M15.0001 22.8469C19.3377 22.8469 22.8541 19.3306 22.8541 14.993C22.8541 10.6554 19.3377 7.13907 15.0001 7.13907C10.6626 7.13907 7.14624 10.6554 7.14624 14.993C7.14624 19.3306 10.6626 22.8469 15.0001 22.8469Z" fill="#FFBC45"/>
<path d="M18.5085 7.96875C19.0382 9.02578 19.3359 10.2164 19.3359 11.4773C19.3359 15.8133 15.8203 19.3313 11.482 19.3313C10.221 19.3313 9.02808 19.0312 7.97339 18.5039C9.2648 21.0773 11.925 22.8469 15 22.8469C19.3359 22.8469 22.8539 19.3312 22.8539 14.993C22.8539 11.918 21.0843 9.25781 18.5085 7.96875Z" fill="#F9AE35"/>
<path d="M15 0.46875C14.7422 0.46875 14.5312 0.679688 14.5312 0.9375V3.56719C14.5312 3.825 14.7422 4.03594 15 4.03594C15.2578 4.03594 15.4688 3.825 15.4688 3.56719V0.9375C15.4688 0.679688 15.2578 0.46875 15 0.46875Z" fill="#FFBC45"/>
<path d="M15 25.9523C14.7422 25.9523 14.5312 26.1633 14.5312 26.4211V29.0508C14.5312 29.3086 14.7422 29.5195 15 29.5195C15.2578 29.5195 15.4688 29.3086 15.4688 29.0508V26.4211C15.4688 26.1609 15.2578 25.9523 15 25.9523Z" fill="#FFBC45"/>
<path d="M24.607 4.72265L22.7484 6.58124C22.5656 6.76406 22.5656 7.06171 22.7484 7.24453C22.8398 7.33593 22.9594 7.38281 23.0789 7.38281C23.1984 7.38281 23.318 7.33593 23.4094 7.24453L25.268 5.38593C25.4508 5.20312 25.4508 4.90546 25.268 4.72265C25.0852 4.53984 24.7898 4.53984 24.607 4.72265Z" fill="#FFBC45"/>
<path d="M6.58823 22.7414L4.72964 24.6C4.54683 24.7828 4.54683 25.0805 4.72964 25.2633C4.82104 25.3547 4.94058 25.4016 5.06011 25.4016C5.17964 25.4016 5.29917 25.3547 5.39058 25.2633L7.24917 23.4047C7.43198 23.2219 7.43198 22.9242 7.24917 22.7414C7.06636 22.5586 6.77105 22.5586 6.58823 22.7414Z" fill="#FFBC45"/>
<path d="M29.0555 14.5242H26.4258C26.168 14.5242 25.957 14.7352 25.957 14.993C25.957 15.2508 26.168 15.4617 26.4258 15.4617H29.0555C29.3133 15.4617 29.5242 15.2508 29.5242 14.993C29.5242 14.7352 29.3156 14.5242 29.0555 14.5242Z" fill="#FFBC45"/>
<path d="M3.57427 14.5242H0.94458C0.686768 14.5242 0.47583 14.7352 0.47583 14.993C0.47583 15.2508 0.686768 15.4617 0.94458 15.4617H3.57427C3.83208 15.4617 4.04302 15.2508 4.04302 14.993C4.04302 14.7352 3.83208 14.5242 3.57427 14.5242Z" fill="#FFBC45"/>
<path d="M23.4117 22.7414C23.2289 22.5586 22.9313 22.5586 22.7484 22.7414C22.5656 22.9242 22.5656 23.2219 22.7484 23.4047L24.607 25.2633C24.6984 25.3547 24.818 25.4016 24.9375 25.4016C25.057 25.4016 25.1766 25.3547 25.268 25.2633C25.4508 25.0805 25.4508 24.7828 25.268 24.6L23.4117 22.7414Z" fill="#FFBC45"/>
<path d="M5.39292 4.72265C5.21011 4.53984 4.91245 4.53984 4.72964 4.72265C4.54683 4.90546 4.54683 5.20312 4.72964 5.38593L6.58823 7.24453C6.67964 7.33593 6.79917 7.38281 6.9187 7.38281C7.03823 7.38281 7.15776 7.33593 7.24917 7.24453C7.43198 7.06171 7.43198 6.76406 7.24917 6.58124L5.39292 4.72265Z" fill="#FFBC45"/>
</svg>
